P2
5 4
255
233 23 12 3 46 
22 12 21 13 22 
1 2 4 3 4 
7 5 10 6 10 
